<?xml version="1.0" standalone="no" ?>
<!--the width and height set the total pixel output of the image in the browser-->
<!--whatever is within the viewbox will be remapped to show in this size-->
<svg width="1000" height="800" viewBox="1 1000 800"  version="1.1" xmlns="http://www.w3.org/2000/svg" xmlns:xlink="http://www.w3.org/1999/xlink">

<g
   transform=" translate(-50 -100)   scale( .8 .8)">
   <path stroke="black" fill="yellow" stroke-width = "2" vector-effect="non-scaling-stroke"  d="M 
 370,230 370,450 470,730  510,730 610,590 580,410 450,230 Z" />

   <line id="cP-tP line" x1="250" y1="300" x2="250" y2="450" stroke-dasharray="10, 9" style="stroke:rgb(0,0,0);stroke-width:3" />
   <line id="tP-oP line" x1="250" y1="450" x2="250" y2="600" style="stroke:rgb(0,0,0);stroke-width:3" />
   <line id="cF-hR line" x1="400" y1="300" x2="400" y2="450" stroke-dasharray="10, 9" style="stroke:rgb(0,0,0);stroke-width:3" />
   <line id="cF-tI line" x1="400" y1="300" x2="550" y2="450" stroke-dasharray="10, 9" style="stroke:rgb(0,0,0);stroke-width:3" />
   <line id="cI-tI line" x1="550" y1="300" x2="550" y2="450" stroke-dasharray="10, 9" style="stroke:rgb(0,0,0);stroke-width:3" />
   <line id="tI-oI line" x1="550" y1="450" x2="550" y2="600" style="stroke:rgb(0,0,0);stroke-width:3" />


   <line id="cI-hR line" x1="250" y1="300" x2="400" y2="450" stroke-dasharray="10, 9" style="stroke:rgb(0,0,0);stroke-width:3" />
   <line id="cP-hR line" x1="550" y1="300" x2="400" y2="450" stroke-dasharray="10, 9" style="stroke:rgb(0,0,0);stroke-width:3" />

   <line id="hP-oS line" x1="325" y1="450" x2="325" y2="600" stroke-dasharray="10, 9" style="stroke:rgb(0,0,0);stroke-width:3" />
   <line id="oS-mP line" x1="325" y1="600" x2="325" y2="700" style="stroke:rgb(0,0,0);stroke-width:3" />
   <line id="tP-oS line" x1="250" y1="450" x2="325" y2="600" style="stroke:rgb(0,0,0);stroke-width:3" />
   <line id="oS-mS linea" x1="325" y1="600" x2="495" y2="700" style="stroke:rgb(0,0,0);stroke-width:6" />
   <line id="oS-mS lineb" x1="325" y1="600" x2="495" y2="700" style="stroke:rgb(255,255,255);stroke-width:2" />
   <line id="oP-mP linea" x1="250" y1="600" x2="325" y2="700" style="stroke:rgb(0,0,0);stroke-width:10" />
   <line id="oP-mP lineb" x1="250" y1="600" x2="325" y2="700" style="stroke:rgb(255,255,255); stroke-width:6" />
   <line id="oP-mP linec" x1="250" y1="600" x2="325" y2="700" style="stroke:rgb(0,0,0);stroke-width:2" />
   <line id="hR-mS line" x1="400" y1="450" x2="495" y2="700" stroke-dasharray="10, 9" style="stroke:rgb(0,0,0);stroke-width:3" />
   <line id="tI-oF line" x1="550" y1="450" x2="495" y2="600" style="stroke:rgb(0,0,0);stroke-width:3" />
   <line id="oI-mS linea" x1="550" y1="600" x2="495" y2="700" style="stroke:rgb(0,0,0);stroke-width:10" />
   <line id="oI-mS lineb" x1="550" y1="600" x2="495" y2="700" style="stroke:rgb(255,255,255);stroke-width:6" />
   <line id="oI-mS linec" x1="550" y1="600" x2="495" y2="700" style="stroke:rgb(0,0,0);stroke-width:2" />
   <line id="oF-mS linea" x1="495" y1="600" x2="495" y2="700" style="stroke:rgb(0,0,0);stroke-width:10" />
   <line id="oF-mS lineb" x1="495" y1="600" x2="495" y2="700" style="stroke:rgb(255,255,255);stroke-width:6" />
   <line id="oF-mS linec" x1="495" y1="600" x2="495" y2="700" style="stroke:rgb(0,0,0);stroke-width:2" />
   <line id="mp-aP line" x1="323" y1="700" x2="405" y2="800" style="stroke:rgb(0,0,0);stroke-width:3" />
   <line id="mS-aP line" x1="495" y1="700" x2="405" y2="800" style="stroke:rgb(0,0,0);stroke-width:3" />
<circle id="cP circle" cx="250" cy="300" r="20" fill="white" stroke="black" stroke-width="3"/>
<circle id="cF circle" cx="400" cy="300" r="20" fill="white" stroke="black" stroke-width="3"/>
<circle                  cx="550" cy="300" r="20" fill="white" stroke="black" stroke-width="3"/>
<circle id="tP circle" cx="250" cy="450" r="20" fill="white" stroke="black" stroke-width="3"/>
<circle id="hP circle" cx="325" cy="450" r="20" fill="white" stroke="black" stroke-width="3"/>
<circle id="hR circle" cx="400" cy="450" r="20" fill="white" stroke="black" stroke-width="3"/>
<circle id="tI circle" cx="550" cy="450" r="20" fill="white" stroke="black" stroke-width="3"/>
<circle id="oP circle" cx="250" cy="600" r="20" fill="white" stroke="black" stroke-width="3"/>
<circle id="oS circle" cx="325" cy="600" r="20" fill="white" stroke="black" stroke-width="3"/>
<circle id="oF circle" cx = "495" cy="600" r="20" fill="white" stroke="black" stroke-width="3"/>
<circle id="mI circle" cx="550" cy="600" r="20" fill="white" stroke="black" stroke-width="3"/>
<circle id="mP circle" cx="323" cy="700" r="20" fill="white" stroke="black" stroke-width="3"/>
<circle id="mS circle" cx="495" cy="700" r="20" fill="white" stroke="black" stroke-width="3"/>
<circle id="aP circle" cx="405" cy="800" r="20" fill="white" stroke="black" stroke-width="3"/>
<text x="239" y="307" font-size="25">cP</text>
<text x="386" y="308" font-size="25" >cF</text>
<text x="537" y="308" font-size="25" >cI</text>
<text x="238" y="458" font-size="25" >tP</text>
<text x="313" y="458" font-size="25" >hP</text>
<text x="386" y="458" font-size="25" >hR</text>
<text x="542" y="458" font-size="25" >tI</text>
<text x="236" y="608" font-size="25" >oP</text>
<text x="310" y="608" font-size="25" >oS</text>
<text x="480" y="608" font-size="25" >oF</text>
<text x="535" y="608" font-size="25" >oI</text>
<text x="307" y="708" font-size="25" >mP</text>
<text x="478" y="708" font-size="25" >mS</text>
<text x="392" y="808" font-size="25" >aP</text>
<text x="150" y="850" font-size="15" >Diagram based on:</text>
<text x="150" y="870" font-size="15" >Grimmer, Hans. "Partial order among the 14 Bravais  </text>
<text x="150" y="890" font-size="15" >types of lattices: basics and applications." Acta Crystallographica </text>
<text x="150" y="910" font-size="15" >Section A : Foundations and Advances 71, no. 2 (2015) : 143 - 149.</text>
<text x="150" y="940" font-size="20" >The dashed lines indicate "conjugate" relationships between the types.</text>
<text x="175" y="175" font-size="25" >SELLA RESULTS  (Angstroms)</text>
<text x="175" y="210" font-size="25" >      P 7.071	7.071	7.071	90	120	120		</text>
   <rect id="cF" x="365" y="230" width="80" height="30" stroke-width="2" stroke="orange" fill="white" />
   <text id="cF" x="370" y="250" font-size="18">          0</text>

   <rect id="cI" x="515" y="230" width="80" height="30" stroke-width="2" stroke="orange" fill="white" />
   <text id="cI" x="520" y="250" font-size="18">       5.37 </text>

   <rect id="cP" x="215" y="230" width="80" height="30" stroke-width="2" stroke="orange" fill="white" />
   <text id="cP" x="220" y="250" font-size="18">          5</text>

   <g transform=" translate(-10 10)  ">    <rect id="hP" x="285" y="380" width="80" height="30" stroke-width="2" stroke="orange" fill="white" />
   <text id="hP" x="300" y="400" font-size="18">       5.68 </text>
</g>
   <g transform=" translate(10 10)  ">    <rect id="hR" x="385" y="380" width="80" height="30" stroke-width="2" stroke="orange" fill="white" />
   <text id="hR" x="400" y="400" font-size="18">          0 </text>
</g>
   <g transform=" translate(90 20)  ">    <rect id="mS" x="435" y="650" width="80" height="30" stroke-width="2" stroke="orange" fill="white" />
   <text id="mS" x="450" y="670" font-size="18">          0 </text>
</g>
   <g transform=" translate(-70 30)  ">    <rect id="mP" x="285" y="650" width="80" height="30" stroke-width="2" stroke="orange" fill="white" />
   <text id="mP" x="300" y="670" font-size="18">          5 </text>
</g>
   <rect id="oS" x="285" y="530" width="80" height="30" stroke-width="2" stroke="orange" fill="white" />
   <text id="oS" x="300" y="550" font-size="18">          5 </text>

   <rect id="oF" x="460" y="530" width="80" height="30" stroke-width="2" stroke="orange" fill="white" />
   <text id="oF" x="470" y="550" font-size="18">          0 </text>

   <g transform=" translate(40 30)  ">    <rect id="oI" x="535" y="530" width="80" height="30" stroke-width="2" stroke="orange" fill="white" />
   <text id="oI" x="550" y="550" font-size="18">          0 </text>
</g>


   <g transform=" translate(20 30)  ">    <rect id="oP" x="125" y="530" width="80" height="30" stroke-width="2" stroke="orange" fill="white" />
   <text id="oP" x="135" y="550" font-size="18">          5 </text>
</g>
   <g transform=" translate(20 10)  ">    <rect id="tI" x="535" y="380" width="80" height="30" stroke-width="2" stroke="orange" fill="white" />
   <text id="tI" x="550" y="400" font-size="18">          0 </text>
</g>
   <g transform=" translate(20 30)  ">    <rect id="tP" x="125" y="380" width="80" height="30" stroke-width="2" stroke="orange" fill="white" />
   <text id="tP" x="135" y="400" font-size="18">          5 </text>
</g>
<text x = "680" y = "300" font-size = "15" >Projected best fits ( reported distances (in A^2)) </text>
<text x = "700" y = "320" font-size = "15" >P     7.071     7.071     7.071    90.000   120.000   120.000  cF 0 </text>
<text x = "700" y = "340" font-size = "15" >P     7.071     7.071     7.071    90.000   120.000   120.000  hR 0 </text>
<text x = "700" y = "360" font-size = "15" >P     7.071     7.071     7.071    90.000   120.000   120.000  mC 0 </text>
<text x = "700" y = "380" font-size = "15" >P     7.071     7.071     7.071    90.000   120.000   120.000  oF 0 </text>
<text x = "700" y = "400" font-size = "15" >P     7.071     7.071     7.071    90.000   120.000   120.000  oI 0 </text>
<text x = "700" y = "420" font-size = "15" >P     7.071     7.071     7.071    90.000   120.000   120.000  tI 0 </text>

   </g>

   </svg>


