<?xml version="1.0" encoding="UTF-8" standalone="no"?>
<svg width="900" height="700" xmlns="http://www.w3.org/2000/svg">
<!-- @article{marsh1988two,
  title={Two more space group revisions},
  author={Marsh, Richard E},
  journal={Inorganic Chemistry},
  volume={27},
  number={16},
  pages={2902--2903},
  year={1988},
  publisher={ACS Publications}
}  -->
  <g id="title" transform="translate(0,0)">
  <text x="450" y="20" text-anchor="middle" font-family="Arial" font-size="20" font-weight="bold">SELLA Lattice Fit Analysis</text>
  <text x="450" y="40" text-anchor="middle" font-family="Arial" font-size="16">p 7.485 7.515 7.52 89.98 90.01 90.03</text>
  </g>
  <g id="delonePlot" transform="translate(100,80)">
  <rect fill="#FFFFFF" height="200" stroke="#333333" stroke-width="1" width="375" x="0" y="0" />
  <text fill="#000000" font-family="Arial" font-size="16" font-weight="bold" text-anchor="middle" x="187" y="-20">Delone Types (Sorted by Fit Value)</text>
  <text x="-60" y="100" transform="rotate(-90,-60,100)" text-anchor="middle" font-family="Arial" font-size="14">Fit Value</text>
  <text fill="#000000" font-family="Arial" font-size="14" font-weight="normal" text-anchor="middle" x="187" y="235">Types (sorted by fit value)</text>
  <line stroke="#DDDDDD" stroke-width="1" x1="0" x2="375" y1="200" y2="200" />
  <text fill="#000000" font-family="Arial" font-size="12" font-weight="normal" text-anchor="end" x="-5" y="205">0</text>
  <line stroke="#DDDDDD" stroke-width="1" x1="0" x2="375" y1="143" y2="143" />
  <text fill="#000000" font-family="Arial" font-size="12" font-weight="normal" text-anchor="end" x="-5" y="148">1.000</text>
  <line stroke="#DDDDDD" stroke-width="1" x1="0" x2="375" y1="87" y2="87" />
  <text fill="#000000" font-family="Arial" font-size="12" font-weight="normal" text-anchor="end" x="-5" y="92">10.0</text>
  <line stroke="#DDDDDD" stroke-width="1" x1="0" x2="375" y1="18" y2="18" />
  <text fill="#000000" font-family="Arial" font-size="12" font-weight="normal" text-anchor="end" x="-5" y="23">50.0</text>
  <line stroke="#DDDDDD" stroke-width="1" x1="0" x2="375" y1="0" y2="0" />
  <text fill="#000000" font-family="Arial" font-size="12" font-weight="normal" text-anchor="end" x="-5" y="5">70.0</text>
  <line stroke="#00CC00" stroke-dasharray="5,3" stroke-width="1" x1="0" x2="375" y1="172" y2="172" />
  <text fill="#00CC00" font-family="Arial" font-size="12" font-weight="normal" text-anchor="end" x="370" y="167">0.1% (0.097580)</text>
  <line stroke="#FF6600" stroke-dasharray="5,3" stroke-width="1" x1="0" x2="375" y1="144" y2="144" />
  <text fill="#FF6600" font-family="Arial" font-size="12" font-weight="normal" text-anchor="end" x="370" y="139">1% (0.975800)</text>
  <line stroke="#CC0000" stroke-dasharray="5,3" stroke-width="1" x1="0" x2="375" y1="109" y2="109" />
  <text fill="#CC0000" font-family="Arial" font-size="12" font-weight="normal" text-anchor="end" x="370" y="104">5% (4.878998)</text>
  <polyline fill="none" points="10,200 25.4348,185.968 40.8696,184.411 56.3043,182.132 71.7391,181.637 87.1739,174.725 102.609,174.65 118.043,174.649 133.478,174.576 148.913,158.044 164.348,158.04 179.783,157.201 195.217,157.197 210.652,30.6781 226.087,30.6781 241.522,30.678 256.957,30.2776 272.391,23.0114 287.826,19.7458 303.261,19.7458 318.696,19.7458 334.13,19.7458 349.565,3.58972 365,0 " stroke="#56B4E9" stroke-width="2" />
  <circle cx="10" cy="200" fill="#56B4E9" r="4" />
  <title>A1: 0.000</title>
  <text x="10.000" y="215" text-anchor="middle" font-family="Arial" font-size="10" transform="rotate(45,10.000,215)">A1</text>
  <line stroke="#DDDDDD" stroke-dasharray="2,2" stroke-width="1" x1="10" x2="10" y1="200" y2="200" />
  <circle cx="25" cy="185" fill="#56B4E9" r="4" />
  <title>A2: 0.010</title>
  <text x="25.435" y="215" text-anchor="middle" font-family="Arial" font-size="10" transform="rotate(45,25.435,215)">A2</text>
  <line stroke="#DDDDDD" stroke-dasharray="2,2" stroke-width="1" x1="25" x2="25" y1="185" y2="200" />
  <circle cx="40" cy="184" fill="#56B4E9" r="4" />
  <title>M4: 0.014</title>
  <text x="40.870" y="215" text-anchor="middle" font-family="Arial" font-size="10" transform="rotate(45,40.870,215)">M4</text>
  <line stroke="#DDDDDD" stroke-dasharray="2,2" stroke-width="1" x1="40" x2="40" y1="184" y2="200" />
  <circle cx="56" cy="182" fill="#56B4E9" r="4" />
  <title>A3: 0.022</title>
  <text x="56.304" y="215" text-anchor="middle" font-family="Arial" font-size="10" transform="rotate(45,56.304,215)">A3</text>
  <line stroke="#DDDDDD" stroke-dasharray="2,2" stroke-width="1" x1="56" x2="56" y1="182" y2="200" />
  <circle cx="71" cy="181" fill="#56B4E9" r="4" />
  <title>O5: 0.024</title>
  <text x="71.739" y="215" text-anchor="middle" font-family="Arial" font-size="10" transform="rotate(45,71.739,215)">O5</text>
  <line stroke="#DDDDDD" stroke-dasharray="2,2" stroke-width="1" x1="71" x2="71" y1="181" y2="200" />
  <circle cx="87" cy="174" fill="#56B4E9" r="4" />
  <title>M2A: 0.070</title>
  <text x="87.174" y="215" text-anchor="middle" font-family="Arial" font-size="10" transform="rotate(45,87.174,215)">M2A</text>
  <line stroke="#DDDDDD" stroke-dasharray="2,2" stroke-width="1" x1="87" x2="87" y1="174" y2="200" />
  <circle cx="102" cy="174" fill="#56B4E9" r="4" />
  <title>O4: 0.071</title>
  <text x="102.609" y="215" text-anchor="middle" font-family="Arial" font-size="10" transform="rotate(45,102.609,215)">O4</text>
  <line stroke="#DDDDDD" stroke-dasharray="2,2" stroke-width="1" x1="102" x2="102" y1="174" y2="200" />
  <circle cx="118" cy="174" fill="#56B4E9" r="4" />
  <title>M3: 0.071</title>
  <text x="118.043" y="215" text-anchor="middle" font-family="Arial" font-size="10" transform="rotate(45,118.043,215)">M3</text>
  <line stroke="#DDDDDD" stroke-dasharray="2,2" stroke-width="1" x1="118" x2="118" y1="174" y2="200" />
  <circle cx="133" cy="174" fill="#56B4E9" r="4" />
  <title>T5: 0.071</title>
  <text x="133.478" y="215" text-anchor="middle" font-family="Arial" font-size="10" transform="rotate(45,133.478,215)">T5</text>
  <line stroke="#DDDDDD" stroke-dasharray="2,2" stroke-width="1" x1="133" x2="133" y1="174" y2="200" />
  <circle cx="148" cy="158" fill="#56B4E9" r="4" />
  <title>M1B: 0.378</title>
  <text x="148.913" y="215" text-anchor="middle" font-family="Arial" font-size="10" transform="rotate(45,148.913,215)">M1B</text>
  <line stroke="#DDDDDD" stroke-dasharray="2,2" stroke-width="1" x1="148" x2="148" y1="158" y2="200" />
  <circle cx="164" cy="158" fill="#56B4E9" r="4" />
  <title>M2B: 0.378</title>
  <text x="164.348" y="215" text-anchor="middle" font-family="Arial" font-size="10" transform="rotate(45,164.348,215)">M2B</text>
  <line stroke="#DDDDDD" stroke-dasharray="2,2" stroke-width="1" x1="164" x2="164" y1="158" y2="200" />
  <circle cx="179" cy="157" fill="#56B4E9" r="4" />
  <title>R3: 0.404</title>
  <text x="179.783" y="215" text-anchor="middle" font-family="Arial" font-size="10" transform="rotate(45,179.783,215)">R3</text>
  <line stroke="#DDDDDD" stroke-dasharray="2,2" stroke-width="1" x1="179" x2="179" y1="157" y2="200" />
  <circle cx="195" cy="157" fill="#56B4E9" r="4" />
  <title>C5: 0.404</title>
  <text x="195.217" y="215" text-anchor="middle" font-family="Arial" font-size="10" transform="rotate(45,195.217,215)">C5</text>
  <line stroke="#DDDDDD" stroke-dasharray="2,2" stroke-width="1" x1="195" x2="195" y1="157" y2="200" />
  <circle cx="210" cy="30" fill="#56B4E9" r="4" />
  <title>M1A: 39.59</title>
  <text x="210.65" y="215" text-anchor="middle" font-family="Arial" font-size="10" transform="rotate(45,210.65,215)">M1A</text>
  <line stroke="#DDDDDD" stroke-dasharray="2,2" stroke-width="1" x1="210" x2="210" y1="30" y2="200" />
  <circle cx="226" cy="30" fill="#56B4E9" r="4" />
  <title>O2: 39.59</title>
  <text x="226.09" y="215" text-anchor="middle" font-family="Arial" font-size="10" transform="rotate(45,226.09,215)">O2</text>
  <line stroke="#DDDDDD" stroke-dasharray="2,2" stroke-width="1" x1="226" x2="226" y1="30" y2="200" />
  <circle cx="241" cy="30" fill="#56B4E9" r="4" />
  <title>O3: 39.59</title>
  <text x="241.52" y="215" text-anchor="middle" font-family="Arial" font-size="10" transform="rotate(45,241.52,215)">O3</text>
  <line stroke="#DDDDDD" stroke-dasharray="2,2" stroke-width="1" x1="241" x2="241" y1="30" y2="200" />
  <circle cx="256" cy="30" fill="#56B4E9" r="4" />
  <title>O1B: 39.90</title>
  <text x="256.96" y="215" text-anchor="middle" font-family="Arial" font-size="10" transform="rotate(45,256.96,215)">O1B</text>
  <line stroke="#DDDDDD" stroke-dasharray="2,2" stroke-width="1" x1="256" x2="256" y1="30" y2="200" />
  <circle cx="272" cy="23" fill="#56B4E9" r="4" />
  <title>H4: 45.89</title>
  <text x="272.39" y="215" text-anchor="middle" font-family="Arial" font-size="10" transform="rotate(45,272.39,215)">H4</text>
  <line stroke="#DDDDDD" stroke-dasharray="2,2" stroke-width="1" x1="272" x2="272" y1="23" y2="200" />
  <circle cx="287" cy="19" fill="#56B4E9" r="4" />
  <title>O1A: 48.77</title>
  <text x="287.83" y="215" text-anchor="middle" font-family="Arial" font-size="10" transform="rotate(45,287.83,215)">O1A</text>
  <line stroke="#DDDDDD" stroke-dasharray="2,2" stroke-width="1" x1="287" x2="287" y1="19" y2="200" />
  <circle cx="303" cy="19" fill="#56B4E9" r="4" />
  <title>T1: 48.77</title>
  <text x="303.26" y="215" text-anchor="middle" font-family="Arial" font-size="10" transform="rotate(45,303.26,215)">T1</text>
  <line stroke="#DDDDDD" stroke-dasharray="2,2" stroke-width="1" x1="303" x2="303" y1="19" y2="200" />
  <circle cx="318" cy="19" fill="#56B4E9" r="4" />
  <title>T2: 48.77</title>
  <text x="318.70" y="215" text-anchor="middle" font-family="Arial" font-size="10" transform="rotate(45,318.70,215)">T2</text>
  <line stroke="#DDDDDD" stroke-dasharray="2,2" stroke-width="1" x1="318" x2="318" y1="19" y2="200" />
  <circle cx="334" cy="19" fill="#56B4E9" r="4" />
  <title>C3: 48.77</title>
  <text x="334.13" y="215" text-anchor="middle" font-family="Arial" font-size="10" transform="rotate(45,334.13,215)">C3</text>
  <line stroke="#DDDDDD" stroke-dasharray="2,2" stroke-width="1" x1="334" x2="334" y1="19" y2="200" />
  <circle cx="349" cy="3" fill="#56B4E9" r="4" />
  <title>R1: 64.92</title>
  <text x="349.57" y="215" text-anchor="middle" font-family="Arial" font-size="10" transform="rotate(45,349.57,215)">R1</text>
  <line stroke="#DDDDDD" stroke-dasharray="2,2" stroke-width="1" x1="349" x2="349" y1="3" y2="200" />
  <circle cx="365" cy="0" fill="#56B4E9" r="4" />
  <title>C1: 68.96</title>
  <text x="365.00" y="215" text-anchor="middle" font-family="Arial" font-size="10" transform="rotate(45,365.00,215)">C1</text>
  <line stroke="#DDDDDD" stroke-dasharray="2,2" stroke-width="1" x1="365" x2="365" y1="0" y2="200" />
  </g>
  <g id="pearsonPlot" transform="translate(100,400)">
  <rect fill="#FFFFFF" height="200" stroke="#333333" stroke-width="1" width="375" x="0" y="0" />
  <text fill="#000000" font-family="Arial" font-size="16" font-weight="bold" text-anchor="middle" x="187" y="-20">Pearson Types (Sorted by Fit Value)</text>
  <text x="-60" y="100" transform="rotate(-90,-60,100)" text-anchor="middle" font-family="Arial" font-size="14">Fit Value</text>
  <text fill="#000000" font-family="Arial" font-size="14" font-weight="normal" text-anchor="middle" x="187" y="235">Types (sorted by fit value)</text>
  <line stroke="#DDDDDD" stroke-width="1" x1="0" x2="375" y1="200" y2="200" />
  <text fill="#000000" font-family="Arial" font-size="12" font-weight="normal" text-anchor="end" x="-5" y="205">0</text>
  <line stroke="#DDDDDD" stroke-width="1" x1="0" x2="375" y1="143" y2="143" />
  <text fill="#000000" font-family="Arial" font-size="12" font-weight="normal" text-anchor="end" x="-5" y="148">1.000</text>
  <line stroke="#DDDDDD" stroke-width="1" x1="0" x2="375" y1="87" y2="87" />
  <text fill="#000000" font-family="Arial" font-size="12" font-weight="normal" text-anchor="end" x="-5" y="92">10.0</text>
  <line stroke="#DDDDDD" stroke-width="1" x1="0" x2="375" y1="18" y2="18" />
  <text fill="#000000" font-family="Arial" font-size="12" font-weight="normal" text-anchor="end" x="-5" y="23">50.0</text>
  <line stroke="#DDDDDD" stroke-width="1" x1="0" x2="375" y1="0" y2="0" />
  <text fill="#000000" font-family="Arial" font-size="12" font-weight="normal" text-anchor="end" x="-5" y="5">70.0</text>
  <line stroke="#00CC00" stroke-dasharray="5,3" stroke-width="1" x1="0" x2="375" y1="172" y2="172" />
  <text fill="#00CC00" font-family="Arial" font-size="12" font-weight="normal" text-anchor="end" x="370" y="167">0.1% (0.097580)</text>
  <line stroke="#FF6600" stroke-dasharray="5,3" stroke-width="1" x1="0" x2="375" y1="144" y2="144" />
  <text fill="#FF6600" font-family="Arial" font-size="12" font-weight="normal" text-anchor="end" x="370" y="139">1% (0.975800)</text>
  <line stroke="#CC0000" stroke-dasharray="5,3" stroke-width="1" x1="0" x2="375" y1="109" y2="109" />
  <text fill="#CC0000" font-family="Arial" font-size="12" font-weight="normal" text-anchor="end" x="370" y="104">5% (4.878998)</text>
  <polyline fill="none" points="10,200 37.3077,184.411 64.6154,181.637 91.9231,174.725 119.231,174.65 146.538,174.576 173.846,157.201 201.154,157.197 228.462,30.6781 255.769,23.0114 283.077,19.7458 310.385,19.7458 337.692,19.7458 365,0 " stroke="#E69F00" stroke-width="2" />
  <circle cx="10" cy="200" fill="#E69F00" r="4" />
  <title>aP: 0.000</title>
  <text x="10.000" y="215" text-anchor="middle" font-family="Arial" font-size="10" transform="rotate(45,10.000,215)">aP</text>
  <line stroke="#DDDDDD" stroke-dasharray="2,2" stroke-width="1" x1="10" x2="10" y1="200" y2="200" />
  <circle cx="37" cy="184" fill="#E69F00" r="4" />
  <title>mP: 0.014</title>
  <text x="37.308" y="215" text-anchor="middle" font-family="Arial" font-size="10" transform="rotate(45,37.308,215)">mP</text>
  <line stroke="#DDDDDD" stroke-dasharray="2,2" stroke-width="1" x1="37" x2="37" y1="184" y2="200" />
  <circle cx="64" cy="181" fill="#E69F00" r="4" />
  <title>oP: 0.024</title>
  <text x="64.615" y="215" text-anchor="middle" font-family="Arial" font-size="10" transform="rotate(45,64.615,215)">oP</text>
  <line stroke="#DDDDDD" stroke-dasharray="2,2" stroke-width="1" x1="64" x2="64" y1="181" y2="200" />
  <circle cx="91" cy="174" fill="#E69F00" r="4" />
  <title>mC: 0.070</title>
  <text x="91.923" y="215" text-anchor="middle" font-family="Arial" font-size="10" transform="rotate(45,91.923,215)">mC</text>
  <line stroke="#DDDDDD" stroke-dasharray="2,2" stroke-width="1" x1="91" x2="91" y1="174" y2="200" />
  <circle cx="119" cy="174" fill="#E69F00" r="4" />
  <title>oC: 0.071</title>
  <text x="119.231" y="215" text-anchor="middle" font-family="Arial" font-size="10" transform="rotate(45,119.231,215)">oC</text>
  <line stroke="#DDDDDD" stroke-dasharray="2,2" stroke-width="1" x1="119" x2="119" y1="174" y2="200" />
  <circle cx="146" cy="174" fill="#E69F00" r="4" />
  <title>tP: 0.071</title>
  <text x="146.538" y="215" text-anchor="middle" font-family="Arial" font-size="10" transform="rotate(45,146.538,215)">tP</text>
  <line stroke="#DDDDDD" stroke-dasharray="2,2" stroke-width="1" x1="146" x2="146" y1="174" y2="200" />
  <circle cx="173" cy="157" fill="#E69F00" r="4" />
  <title>hR: 0.404</title>
  <text x="173.846" y="215" text-anchor="middle" font-family="Arial" font-size="10" transform="rotate(45,173.846,215)">hR</text>
  <line stroke="#DDDDDD" stroke-dasharray="2,2" stroke-width="1" x1="173" x2="173" y1="157" y2="200" />
  <circle cx="201" cy="157" fill="#E69F00" r="4" />
  <title>cP: 0.404</title>
  <text x="201.154" y="215" text-anchor="middle" font-family="Arial" font-size="10" transform="rotate(45,201.154,215)">cP</text>
  <line stroke="#DDDDDD" stroke-dasharray="2,2" stroke-width="1" x1="201" x2="201" y1="157" y2="200" />
  <circle cx="228" cy="30" fill="#E69F00" r="4" />
  <title>oI: 39.59</title>
  <text x="228.46" y="215" text-anchor="middle" font-family="Arial" font-size="10" transform="rotate(45,228.46,215)">oI</text>
  <line stroke="#DDDDDD" stroke-dasharray="2,2" stroke-width="1" x1="228" x2="228" y1="30" y2="200" />
  <circle cx="255" cy="23" fill="#E69F00" r="4" />
  <title>hP: 45.89</title>
  <text x="255.77" y="215" text-anchor="middle" font-family="Arial" font-size="10" transform="rotate(45,255.77,215)">hP</text>
  <line stroke="#DDDDDD" stroke-dasharray="2,2" stroke-width="1" x1="255" x2="255" y1="23" y2="200" />
  <circle cx="283" cy="19" fill="#E69F00" r="4" />
  <title>oF: 48.77</title>
  <text x="283.08" y="215" text-anchor="middle" font-family="Arial" font-size="10" transform="rotate(45,283.08,215)">oF</text>
  <line stroke="#DDDDDD" stroke-dasharray="2,2" stroke-width="1" x1="283" x2="283" y1="19" y2="200" />
  <circle cx="310" cy="19" fill="#E69F00" r="4" />
  <title>tI: 48.77</title>
  <text x="310.38" y="215" text-anchor="middle" font-family="Arial" font-size="10" transform="rotate(45,310.38,215)">tI</text>
  <line stroke="#DDDDDD" stroke-dasharray="2,2" stroke-width="1" x1="310" x2="310" y1="19" y2="200" />
  <circle cx="337" cy="19" fill="#E69F00" r="4" />
  <title>cF: 48.77</title>
  <text x="337.69" y="215" text-anchor="middle" font-family="Arial" font-size="10" transform="rotate(45,337.69,215)">cF</text>
  <line stroke="#DDDDDD" stroke-dasharray="2,2" stroke-width="1" x1="337" x2="337" y1="19" y2="200" />
  <circle cx="365" cy="0" fill="#E69F00" r="4" />
  <title>cI: 68.96</title>
  <text x="365.00" y="215" text-anchor="middle" font-family="Arial" font-size="10" transform="rotate(45,365.00,215)">cI</text>
  <line stroke="#DDDDDD" stroke-dasharray="2,2" stroke-width="1" x1="365" x2="365" y1="0" y2="200" />
  </g>
  <g id="fitList" transform="translate(515,80)">
  <text x="0" y="-20" font-family="Arial" font-size="16" font-weight="bold">Delone Types by Pearson Type</text>
  <g id="leftFitColumn" transform="translate(0,0)">
  <text x="0" y="0" font-family="Arial" font-size="14" font-weight="bold">aP (0.000)</text>
  <text x="20" y="20" font-family="Arial" font-size="12">A1: 0.000</text>
  <text x="20" y="38" font-family="Arial" font-size="12">A2: 0.010</text>
  <text x="20" y="56" font-family="Arial" font-size="12">A3: 0.022</text>
  <text x="0" y="79" font-family="Arial" font-size="14" font-weight="bold">mP (0.014)</text>
  <text x="20" y="99" font-family="Arial" font-size="12">M4: 0.014</text>
  <text x="0" y="122" font-family="Arial" font-size="14" font-weight="bold">oP (0.024)</text>
  <text x="20" y="142" font-family="Arial" font-size="12">O5: 0.024</text>
  <text x="0" y="165" font-family="Arial" font-size="14" font-weight="bold">mC (0.070)</text>
  <text x="20" y="185" font-family="Arial" font-size="12">M1A: 39.59</text>
  <text x="20" y="203" font-family="Arial" font-size="12">M1B: 0.378</text>
  <text x="20" y="221" font-family="Arial" font-size="12">M2B: 0.378</text>
  <text x="20" y="239" font-family="Arial" font-size="12">M2A: 0.070</text>
  <text x="20" y="257" font-family="Arial" font-size="12">M3: 0.071</text>
  <text x="0" y="280" font-family="Arial" font-size="14" font-weight="bold">oC (0.071)</text>
  <text x="20" y="300" font-family="Arial" font-size="12">O4: 0.071</text>
  <text x="0" y="323" font-family="Arial" font-size="14" font-weight="bold">tP (0.071)</text>
  <text x="20" y="343" font-family="Arial" font-size="12">T5: 0.071</text>
  </g>
  <g id="rightFitColumn" transform="translate(160,0)">
  <text x="0" y="0" font-family="Arial" font-size="14" font-weight="bold">hR (0.404)</text>
  <text x="20" y="20" font-family="Arial" font-size="12">R1: 64.92</text>
  <text x="20" y="38" font-family="Arial" font-size="12">R3: 0.404</text>
  <text x="0" y="61" font-family="Arial" font-size="14" font-weight="bold">cP (0.404)</text>
  <text x="20" y="81" font-family="Arial" font-size="12">C5: 0.404</text>
  <text x="0" y="104" font-family="Arial" font-size="14" font-weight="bold">oI (39.59)</text>
  <text x="20" y="124" font-family="Arial" font-size="12">O1B: 39.90</text>
  <text x="20" y="142" font-family="Arial" font-size="12">O2: 39.59</text>
  <text x="20" y="160" font-family="Arial" font-size="12">O3: 39.59</text>
  <text x="0" y="183" font-family="Arial" font-size="14" font-weight="bold">hP (45.89)</text>
  <text x="20" y="203" font-family="Arial" font-size="12">H4: 45.89</text>
  <text x="0" y="226" font-family="Arial" font-size="14" font-weight="bold">oF (48.77)</text>
  <text x="20" y="246" font-family="Arial" font-size="12">O1A: 48.77</text>
  <text x="0" y="269" font-family="Arial" font-size="14" font-weight="bold">tI (48.77)</text>
  <text x="20" y="289" font-family="Arial" font-size="12">T1: 48.77</text>
  <text x="20" y="307" font-family="Arial" font-size="12">T2: 48.77</text>
  <text x="0" y="330" font-family="Arial" font-size="14" font-weight="bold">cF (48.77)</text>
  <text x="20" y="350" font-family="Arial" font-size="12">C3: 48.77</text>
  <text x="0" y="373" font-family="Arial" font-size="14" font-weight="bold">cI (68.96)</text>
  <text x="20" y="393" font-family="Arial" font-size="12">C1: 68.96</text>
  </g>
  </g>
  <g id="legend" transform="translate(515,460)">
  <text x="0" y="0" font-family="Arial" font-size="14" font-weight="bold">Legend</text>
  <text x="0" y="25" font-family="Arial" font-size="12">Reference Lines:</text>
  <line x1="20" y1="40" x2="50" y2="40" stroke="#00CC00" stroke-width="1" stroke-dasharray="5,3" />
  <text x="60" y="45" font-family="Arial" font-size="12">0.1% of S6 norm</text>
  <line x1="20" y1="60" x2="50" y2="60" stroke="#FF6600" stroke-width="1" stroke-dasharray="5,3" />
  <text x="60" y="65" font-family="Arial" font-size="12">1% of S6 norm</text>
  <line x1="20" y1="80" x2="50" y2="80" stroke="#CC0000" stroke-width="1" stroke-dasharray="5,3" />
  <text x="60" y="85" font-family="Arial" font-size="12">5% of S6 norm</text>
  <text x="0" y="105" font-family="Arial" font-size="12">Plot Lines:</text>
  <line x1="20" y1="120" x2="50" y2="120" stroke="#56B4E9" stroke-width="2" />
  <text x="60" y="125" font-family="Arial" font-size="12">Delone types</text>
  <line x1="20" y1="140" x2="50" y2="140" stroke="#E69F00" stroke-width="2" />
  <text x="60" y="145" font-family="Arial" font-size="12">Pearson types</text>
  <text x="0" y="165" font-family="Arial" font-size="12" font-style="italic">Lower fit values indicate better matches</text>
  <text x="0" y="185" font-family="Arial" font-size="12" fill="#666666">Y-axis uses logarithmic compression</text>
  <text x="0" y="205" font-family="Arial" font-size="12" fill="#666666">to emphasize small values</text>
  </g>
  <g id="footer" transform="translate(0,660)">
  <text x="300" y="15" text-anchor="middle" font-family="Arial" font-size="12" fill="#666666">Created by SELLA - 2025-08-31</text>
  </g>
</svg>
