<?xml version="1.0" encoding="UTF-8"?>
<!DOCTYPE svg PUBLIC "-//W3C//DTD SVG 1.1//EN" "http://www.w3.org/Graphics/SVG/1.1/DTD/svg11.dtd">
<svg width="227mm" height="164mm" viewBox="0 0 22700 16400" version="1.1" xmlns="http://www.w3.org/2000/svg" stroke-width="28.222" stroke-linejoin="round" xml:space="preserve">
 <path fill="rgb(114,159,207)" stroke="none" d="M 1,1 L 22660,1 22660,16433 1,16433 1,1 Z"/>
 <path fill="none" stroke="rgb(52,101,164)" stroke-linejoin="round" d="M 1,1 L 22660,1 22660,16433 1,16433 1,1 Z"/>
 <path fill="rgb(255,255,255)" stroke="none" d="M 11331,16433 L 1,16433 1,1 22660,1 22660,16433 11331,16433 Z"/>
 <path fill="none" stroke="rgb(0,0,0)" stroke-linejoin="round" d="M 11331,16433 L 1,16433 1,1 22660,1 22660,16433 11331,16433 Z"/>
 <path fill="rgb(192,192,192)" stroke="none" d="M 10292,15920 L 785,15920 785,515 19798,515 19798,15920 10292,15920 Z"/>
 <path fill="none" stroke="rgb(128,128,128)" stroke-width="35" stroke-linejoin="round" d="M 10292,15920 L 785,15920 785,515 19798,515 19798,15920 10292,15920 Z"/>
 <path fill="none" stroke="rgb(0,0,0)" stroke-linejoin="round" d="M 19798,15919 L 785,15919"/>
 <path fill="none" stroke="rgb(0,0,0)" stroke-linejoin="round" d="M 19798,14207 L 785,14207"/>
 <path fill="none" stroke="rgb(0,0,0)" stroke-linejoin="round" d="M 19798,12495 L 785,12495"/>
 <path fill="none" stroke="rgb(0,0,0)" stroke-linejoin="round" d="M 19798,10783 L 785,10783"/>
 <path fill="none" stroke="rgb(0,0,0)" stroke-linejoin="round" d="M 19798,9071 L 785,9071"/>
 <path fill="none" stroke="rgb(0,0,0)" stroke-linejoin="round" d="M 19798,7361 L 785,7361"/>
 <path fill="none" stroke="rgb(0,0,0)" stroke-linejoin="round" d="M 19798,5649 L 785,5649"/>
 <path fill="none" stroke="rgb(0,0,0)" stroke-linejoin="round" d="M 19798,3937 L 785,3937"/>
 <path fill="none" stroke="rgb(0,0,0)" stroke-linejoin="round" d="M 19798,2225 L 785,2225"/>
 <path fill="none" stroke="rgb(0,0,0)" stroke-linejoin="round" d="M 19798,514 L 785,514"/>
 <path fill="none" stroke="rgb(0,0,0)" stroke-linejoin="round" d="M 785,9221 L 785,9071"/>
 <path fill="none" stroke="rgb(0,0,0)" stroke-linejoin="round" d="M 4587,9221 L 4587,9071"/>
 <path fill="none" stroke="rgb(0,0,0)" stroke-linejoin="round" d="M 8390,9221 L 8390,9071"/>
 <path fill="none" stroke="rgb(0,0,0)" stroke-linejoin="round" d="M 12192,9221 L 12192,9071"/>
 <path fill="none" stroke="rgb(0,0,0)" stroke-linejoin="round" d="M 15995,9221 L 15995,9071"/>
 <path fill="none" stroke="rgb(0,0,0)" stroke-linejoin="round" d="M 19798,9221 L 19798,9071"/>
 <path fill="none" stroke="rgb(0,0,0)" stroke-linejoin="round" d="M 785,9071 L 19798,9071"/>
 <path fill="none" stroke="rgb(0,0,0)" stroke-linejoin="round" d="M 8240,15919 L 8390,15919"/>
 <path fill="none" stroke="rgb(0,0,0)" stroke-linejoin="round" d="M 8240,14207 L 8390,14207"/>
 <path fill="none" stroke="rgb(0,0,0)" stroke-linejoin="round" d="M 8240,12495 L 8390,12495"/>
 <path fill="none" stroke="rgb(0,0,0)" stroke-linejoin="round" d="M 8240,10783 L 8390,10783"/>
 <path fill="none" stroke="rgb(0,0,0)" stroke-linejoin="round" d="M 8240,9071 L 8390,9071"/>
 <path fill="none" stroke="rgb(0,0,0)" stroke-linejoin="round" d="M 8240,7361 L 8390,7361"/>
 <path fill="none" stroke="rgb(0,0,0)" stroke-linejoin="round" d="M 8240,5649 L 8390,5649"/>
 <path fill="none" stroke="rgb(0,0,0)" stroke-linejoin="round" d="M 8240,3937 L 8390,3937"/>
 <path fill="none" stroke="rgb(0,0,0)" stroke-linejoin="round" d="M 8240,2225 L 8390,2225"/>
 <path fill="none" stroke="rgb(0,0,0)" stroke-linejoin="round" d="M 8240,514 L 8390,514"/>
 <path fill="none" stroke="rgb(0,0,0)" stroke-linejoin="round" d="M 8390,15919 L 8390,514"/>
 <path fill="rgb(0,0,128)" stroke="none" d="M 15907,9071 L 15995,9159 16083,9071 15995,8983 15907,9071 Z"/>
 <path fill="none" stroke="rgb(0,0,128)" stroke-linejoin="round" d="M 15907,9071 L 15995,9159 16083,9071 15995,8983 15907,9071 Z"/>
 <path fill="rgb(0,0,128)" stroke="none" d="M 16117,8524 L 16205,8612 16293,8524 16205,8436 16117,8524 Z"/>
 <path fill="none" stroke="rgb(0,0,128)" stroke-linejoin="round" d="M 16117,8524 L 16205,8612 16293,8524 16205,8436 16117,8524 Z"/>
 <path fill="rgb(0,0,128)" stroke="none" d="M 16272,7951 L 16360,8039 16448,7951 16360,7863 16272,7951 Z"/>
 <path fill="none" stroke="rgb(0,0,128)" stroke-linejoin="round" d="M 16272,7951 L 16360,8039 16448,7951 16360,7863 16272,7951 Z"/>
 <path fill="rgb(0,0,128)" stroke="none" d="M 16368,7358 L 16456,7446 16544,7358 16456,7270 16368,7358 Z"/>
 <path fill="none" stroke="rgb(0,0,128)" stroke-linejoin="round" d="M 16368,7358 L 16456,7446 16544,7358 16456,7270 16368,7358 Z"/>
 <path fill="rgb(0,0,128)" stroke="none" d="M 16404,6755 L 16492,6843 16580,6755 16492,6667 16404,6755 Z"/>
 <path fill="none" stroke="rgb(0,0,128)" stroke-linejoin="round" d="M 16404,6755 L 16492,6843 16580,6755 16492,6667 16404,6755 Z"/>
 <path fill="rgb(0,0,128)" stroke="none" d="M 16379,6150 L 16467,6238 16555,6150 16467,6062 16379,6150 Z"/>
 <path fill="none" stroke="rgb(0,0,128)" stroke-linejoin="round" d="M 16379,6150 L 16467,6238 16555,6150 16467,6062 16379,6150 Z"/>
 <path fill="rgb(0,0,128)" stroke="none" d="M 16292,5551 L 16380,5639 16468,5551 16380,5463 16292,5551 Z"/>
 <path fill="none" stroke="rgb(0,0,128)" stroke-linejoin="round" d="M 16292,5551 L 16380,5639 16468,5551 16380,5463 16292,5551 Z"/>
 <path fill="rgb(0,0,128)" stroke="none" d="M 16144,4966 L 16232,5054 16320,4966 16232,4878 16144,4966 Z"/>
 <path fill="none" stroke="rgb(0,0,128)" stroke-linejoin="round" d="M 16144,4966 L 16232,5054 16320,4966 16232,4878 16144,4966 Z"/>
 <path fill="rgb(0,0,128)" stroke="none" d="M 15937,4404 L 16025,4492 16113,4404 16025,4316 15937,4404 Z"/>
 <path fill="none" stroke="rgb(0,0,128)" stroke-linejoin="round" d="M 15937,4404 L 16025,4492 16113,4404 16025,4316 15937,4404 Z"/>
 <path fill="rgb(0,0,128)" stroke="none" d="M 15674,3872 L 15762,3960 15850,3872 15762,3784 15674,3872 Z"/>
 <path fill="none" stroke="rgb(0,0,128)" stroke-linejoin="round" d="M 15674,3872 L 15762,3960 15850,3872 15762,3784 15674,3872 Z"/>
 <path fill="rgb(0,0,128)" stroke="none" d="M 15288,3434 L 15376,3522 15464,3434 15376,3346 15288,3434 Z"/>
 <path fill="none" stroke="rgb(0,0,128)" stroke-linejoin="round" d="M 15288,3434 L 15376,3522 15464,3434 15376,3346 15288,3434 Z"/>
 <path fill="rgb(0,0,128)" stroke="none" d="M 14748,3154 L 14836,3242 14924,3154 14836,3066 14748,3154 Z"/>
 <path fill="none" stroke="rgb(0,0,128)" stroke-linejoin="round" d="M 14748,3154 L 14836,3242 14924,3154 14836,3066 14748,3154 Z"/>
 <path fill="rgb(0,0,128)" stroke="none" d="M 14189,2943 L 14277,3031 14365,2943 14277,2855 14189,2943 Z"/>
 <path fill="none" stroke="rgb(0,0,128)" stroke-linejoin="round" d="M 14189,2943 L 14277,3031 14365,2943 14277,2855 14189,2943 Z"/>
 <path fill="rgb(0,0,128)" stroke="none" d="M 13618,2803 L 13706,2891 13794,2803 13706,2715 13618,2803 Z"/>
 <path fill="none" stroke="rgb(0,0,128)" stroke-linejoin="round" d="M 13618,2803 L 13706,2891 13794,2803 13706,2715 13618,2803 Z"/>
 <path fill="rgb(0,0,128)" stroke="none" d="M 13044,2734 L 13132,2822 13220,2734 13132,2646 13044,2734 Z"/>
 <path fill="none" stroke="rgb(0,0,128)" stroke-linejoin="round" d="M 13044,2734 L 13132,2822 13220,2734 13132,2646 13044,2734 Z"/>
 <path fill="rgb(0,0,128)" stroke="none" d="M 12474,2734 L 12562,2822 12650,2734 12562,2646 12474,2734 Z"/>
 <path fill="none" stroke="rgb(0,0,128)" stroke-linejoin="round" d="M 12474,2734 L 12562,2822 12650,2734 12562,2646 12474,2734 Z"/>
 <path fill="rgb(0,0,128)" stroke="none" d="M 11915,2803 L 12003,2891 12091,2803 12003,2715 11915,2803 Z"/>
 <path fill="none" stroke="rgb(0,0,128)" stroke-linejoin="round" d="M 11915,2803 L 12003,2891 12091,2803 12003,2715 11915,2803 Z"/>
 <path fill="rgb(0,0,128)" stroke="none" d="M 11374,2937 L 11462,3025 11550,2937 11462,2849 11374,2937 Z"/>
 <path fill="none" stroke="rgb(0,0,128)" stroke-linejoin="round" d="M 11374,2937 L 11462,3025 11550,2937 11462,2849 11374,2937 Z"/>
 <path fill="rgb(0,0,128)" stroke="none" d="M 10859,3130 L 10947,3218 11035,3130 10947,3042 10859,3130 Z"/>
 <path fill="none" stroke="rgb(0,0,128)" stroke-linejoin="round" d="M 10859,3130 L 10947,3218 11035,3130 10947,3042 10859,3130 Z"/>
 <path fill="rgb(0,0,128)" stroke="none" d="M 10375,3379 L 10463,3467 10551,3379 10463,3291 10375,3379 Z"/>
 <path fill="none" stroke="rgb(0,0,128)" stroke-linejoin="round" d="M 10375,3379 L 10463,3467 10551,3379 10463,3291 10375,3379 Z"/>
 <path fill="rgb(0,0,128)" stroke="none" d="M 9926,3677 L 10014,3765 10102,3677 10014,3589 9926,3677 Z"/>
 <path fill="none" stroke="rgb(0,0,128)" stroke-linejoin="round" d="M 9926,3677 L 10014,3765 10102,3677 10014,3589 9926,3677 Z"/>
 <path fill="rgb(0,0,128)" stroke="none" d="M 9519,4014 L 9607,4102 9695,4014 9607,3926 9519,4014 Z"/>
 <path fill="none" stroke="rgb(0,0,128)" stroke-linejoin="round" d="M 9519,4014 L 9607,4102 9695,4014 9607,3926 9519,4014 Z"/>
 <path fill="rgb(0,0,128)" stroke="none" d="M 9156,4384 L 9244,4472 9332,4384 9244,4296 9156,4384 Z"/>
 <path fill="none" stroke="rgb(0,0,128)" stroke-linejoin="round" d="M 9156,4384 L 9244,4472 9332,4384 9244,4296 9156,4384 Z"/>
 <path fill="rgb(0,0,128)" stroke="none" d="M 8840,4773 L 8928,4861 9016,4773 8928,4685 8840,4773 Z"/>
 <path fill="none" stroke="rgb(0,0,128)" stroke-linejoin="round" d="M 8840,4773 L 8928,4861 9016,4773 8928,4685 8840,4773 Z"/>
 <path fill="rgb(0,0,128)" stroke="none" d="M 8572,5172 L 8660,5260 8748,5172 8660,5084 8572,5172 Z"/>
 <path fill="none" stroke="rgb(0,0,128)" stroke-linejoin="round" d="M 8572,5172 L 8660,5260 8748,5172 8660,5084 8572,5172 Z"/>
 <path fill="rgb(0,0,128)" stroke="none" d="M 8351,5563 L 8439,5651 8527,5563 8439,5475 8351,5563 Z"/>
 <path fill="none" stroke="rgb(0,0,128)" stroke-linejoin="round" d="M 8351,5563 L 8439,5651 8527,5563 8439,5475 8351,5563 Z"/>
 <path fill="rgb(0,0,128)" stroke="none" d="M 8172,5931 L 8260,6019 8348,5931 8260,5843 8172,5931 Z"/>
 <path fill="none" stroke="rgb(0,0,128)" stroke-linejoin="round" d="M 8172,5931 L 8260,6019 8348,5931 8260,5843 8172,5931 Z"/>
 <path fill="rgb(0,0,128)" stroke="none" d="M 8028,6255 L 8116,6343 8204,6255 8116,6167 8028,6255 Z"/>
 <path fill="none" stroke="rgb(0,0,128)" stroke-linejoin="round" d="M 8028,6255 L 8116,6343 8204,6255 8116,6167 8028,6255 Z"/>
 <path fill="rgb(0,0,128)" stroke="none" d="M 7909,6513 L 7997,6601 8085,6513 7997,6425 7909,6513 Z"/>
 <path fill="none" stroke="rgb(0,0,128)" stroke-linejoin="round" d="M 7909,6513 L 7997,6601 8085,6513 7997,6425 7909,6513 Z"/>
 <path fill="rgb(0,0,128)" stroke="none" d="M 7798,6686 L 7886,6774 7974,6686 7886,6598 7798,6686 Z"/>
 <path fill="none" stroke="rgb(0,0,128)" stroke-linejoin="round" d="M 7798,6686 L 7886,6774 7974,6686 7886,6598 7798,6686 Z"/>
 <path fill="rgb(0,0,128)" stroke="none" d="M 7677,6762 L 7765,6850 7853,6762 7765,6674 7677,6762 Z"/>
 <path fill="none" stroke="rgb(0,0,128)" stroke-linejoin="round" d="M 7677,6762 L 7765,6850 7853,6762 7765,6674 7677,6762 Z"/>
 <path fill="rgb(0,0,128)" stroke="none" d="M 7529,6746 L 7617,6834 7705,6746 7617,6658 7529,6746 Z"/>
 <path fill="none" stroke="rgb(0,0,128)" stroke-linejoin="round" d="M 7529,6746 L 7617,6834 7705,6746 7617,6658 7529,6746 Z"/>
 <path fill="rgb(0,0,128)" stroke="none" d="M 7345,6659 L 7433,6747 7521,6659 7433,6571 7345,6659 Z"/>
 <path fill="none" stroke="rgb(0,0,128)" stroke-linejoin="round" d="M 7345,6659 L 7433,6747 7521,6659 7433,6571 7345,6659 Z"/>
 <path fill="rgb(0,0,128)" stroke="none" d="M 7220,6744 L 7308,6832 7396,6744 7308,6656 7220,6744 Z"/>
 <path fill="none" stroke="rgb(0,0,128)" stroke-linejoin="round" d="M 7220,6744 L 7308,6832 7396,6744 7308,6656 7220,6744 Z"/>
 <path fill="rgb(0,0,128)" stroke="none" d="M 7353,7308 L 7441,7396 7529,7308 7441,7220 7353,7308 Z"/>
 <path fill="none" stroke="rgb(0,0,128)" stroke-linejoin="round" d="M 7353,7308 L 7441,7396 7529,7308 7441,7220 7353,7308 Z"/>
 <path fill="rgb(0,0,128)" stroke="none" d="M 7531,7821 L 7619,7909 7707,7821 7619,7733 7531,7821 Z"/>
 <path fill="none" stroke="rgb(0,0,128)" stroke-linejoin="round" d="M 7531,7821 L 7619,7909 7707,7821 7619,7733 7531,7821 Z"/>
 <path fill="rgb(0,0,128)" stroke="none" d="M 7723,8246 L 7811,8334 7899,8246 7811,8159 7723,8246 Z"/>
 <path fill="none" stroke="rgb(0,0,128)" stroke-linejoin="round" d="M 7723,8246 L 7811,8334 7899,8246 7811,8159 7723,8246 Z"/>
 <path fill="rgb(0,0,128)" stroke="none" d="M 7839,8490 L 7927,8578 8015,8490 7927,8402 7839,8490 Z"/>
 <path fill="none" stroke="rgb(0,0,128)" stroke-linejoin="round" d="M 7839,8490 L 7927,8578 8015,8490 7927,8402 7839,8490 Z"/>
 <path fill="rgb(0,0,128)" stroke="none" d="M 7732,8439 L 7820,8527 7908,8439 7820,8351 7732,8439 Z"/>
 <path fill="none" stroke="rgb(0,0,128)" stroke-linejoin="round" d="M 7732,8439 L 7820,8527 7908,8439 7820,8351 7732,8439 Z"/>
 <path fill="rgb(0,0,128)" stroke="none" d="M 7430,8219 L 7518,8307 7606,8219 7518,8132 7430,8219 Z"/>
 <path fill="none" stroke="rgb(0,0,128)" stroke-linejoin="round" d="M 7430,8219 L 7518,8307 7606,8219 7518,8132 7430,8219 Z"/>
 <path fill="rgb(0,0,128)" stroke="none" d="M 7038,7983 L 7126,8071 7214,7983 7126,7895 7038,7983 Z"/>
 <path fill="none" stroke="rgb(0,0,128)" stroke-linejoin="round" d="M 7038,7983 L 7126,8071 7214,7983 7126,7895 7038,7983 Z"/>
 <path fill="rgb(0,0,128)" stroke="none" d="M 6598,7786 L 6686,7874 6774,7786 6686,7698 6598,7786 Z"/>
 <path fill="none" stroke="rgb(0,0,128)" stroke-linejoin="round" d="M 6598,7786 L 6686,7874 6774,7786 6686,7698 6598,7786 Z"/>
 <path fill="rgb(0,0,128)" stroke="none" d="M 6132,7646 L 6220,7734 6308,7646 6220,7558 6132,7646 Z"/>
 <path fill="none" stroke="rgb(0,0,128)" stroke-linejoin="round" d="M 6132,7646 L 6220,7734 6308,7646 6220,7558 6132,7646 Z"/>
 <path fill="rgb(0,0,128)" stroke="none" d="M 5651,7570 L 5739,7658 5827,7570 5739,7482 5651,7570 Z"/>
 <path fill="none" stroke="rgb(0,0,128)" stroke-linejoin="round" d="M 5651,7570 L 5739,7658 5827,7570 5739,7482 5651,7570 Z"/>
 <path fill="rgb(0,0,128)" stroke="none" d="M 5164,7561 L 5252,7649 5340,7561 5252,7473 5164,7561 Z"/>
 <path fill="none" stroke="rgb(0,0,128)" stroke-linejoin="round" d="M 5164,7561 L 5252,7649 5340,7561 5252,7473 5164,7561 Z"/>
 <path fill="rgb(0,0,128)" stroke="none" d="M 4682,7621 L 4770,7709 4858,7621 4770,7533 4682,7621 Z"/>
 <path fill="none" stroke="rgb(0,0,128)" stroke-linejoin="round" d="M 4682,7621 L 4770,7709 4858,7621 4770,7533 4682,7621 Z"/>
 <path fill="rgb(0,0,128)" stroke="none" d="M 4211,7749 L 4299,7837 4387,7749 4299,7661 4211,7749 Z"/>
 <path fill="none" stroke="rgb(0,0,128)" stroke-linejoin="round" d="M 4211,7749 L 4299,7837 4387,7749 4299,7661 4211,7749 Z"/>
 <path fill="rgb(0,0,128)" stroke="none" d="M 3760,7942 L 3848,8030 3936,7942 3848,7854 3760,7942 Z"/>
 <path fill="none" stroke="rgb(0,0,128)" stroke-linejoin="round" d="M 3760,7942 L 3848,8030 3936,7942 3848,7854 3760,7942 Z"/>
 <path fill="rgb(0,0,128)" stroke="none" d="M 3336,8196 L 3424,8283 3512,8196 3424,8108 3336,8196 Z"/>
 <path fill="none" stroke="rgb(0,0,128)" stroke-linejoin="round" d="M 3336,8196 L 3424,8283 3512,8196 3424,8108 3336,8196 Z"/>
 <path fill="rgb(0,0,128)" stroke="none" d="M 2946,8507 L 3034,8595 3122,8507 3034,8419 2946,8507 Z"/>
 <path fill="none" stroke="rgb(0,0,128)" stroke-linejoin="round" d="M 2946,8507 L 3034,8595 3122,8507 3034,8419 2946,8507 Z"/>
 <path fill="rgb(0,0,128)" stroke="none" d="M 2595,8872 L 2683,8960 2771,8872 2683,8784 2595,8872 Z"/>
 <path fill="none" stroke="rgb(0,0,128)" stroke-linejoin="round" d="M 2595,8872 L 2683,8960 2771,8872 2683,8784 2595,8872 Z"/>
 <path fill="rgb(0,0,128)" stroke="none" d="M 2442,9277 L 2530,9365 2618,9277 2530,9189 2442,9277 Z"/>
 <path fill="none" stroke="rgb(0,0,128)" stroke-linejoin="round" d="M 2442,9277 L 2530,9365 2618,9277 2530,9189 2442,9277 Z"/>
 <path fill="rgb(0,0,128)" stroke="none" d="M 2492,9683 L 2580,9771 2668,9683 2580,9595 2492,9683 Z"/>
 <path fill="none" stroke="rgb(0,0,128)" stroke-linejoin="round" d="M 2492,9683 L 2580,9771 2668,9683 2580,9595 2492,9683 Z"/>
 <path fill="rgb(0,0,128)" stroke="none" d="M 2591,10079 L 2679,10167 2767,10079 2679,9991 2591,10079 Z"/>
 <path fill="none" stroke="rgb(0,0,128)" stroke-linejoin="round" d="M 2591,10079 L 2679,10167 2767,10079 2679,9991 2591,10079 Z"/>
 <path fill="rgb(0,0,128)" stroke="none" d="M 2737,10457 L 2825,10545 2913,10457 2825,10369 2737,10457 Z"/>
 <path fill="none" stroke="rgb(0,0,128)" stroke-linejoin="round" d="M 2737,10457 L 2825,10545 2913,10457 2825,10369 2737,10457 Z"/>
 <path fill="rgb(0,0,128)" stroke="none" d="M 2928,10810 L 3016,10898 3104,10810 3016,10722 2928,10810 Z"/>
 <path fill="none" stroke="rgb(0,0,128)" stroke-linejoin="round" d="M 2928,10810 L 3016,10898 3104,10810 3016,10722 2928,10810 Z"/>
 <path fill="rgb(0,0,128)" stroke="none" d="M 3160,11132 L 3248,11220 3336,11132 3248,11044 3160,11132 Z"/>
 <path fill="none" stroke="rgb(0,0,128)" stroke-linejoin="round" d="M 3160,11132 L 3248,11220 3336,11132 3248,11044 3160,11132 Z"/>
 <path fill="rgb(0,0,128)" stroke="none" d="M 3429,11418 L 3517,11506 3605,11418 3517,11330 3429,11418 Z"/>
 <path fill="none" stroke="rgb(0,0,128)" stroke-linejoin="round" d="M 3429,11418 L 3517,11506 3605,11418 3517,11330 3429,11418 Z"/>
 <path fill="rgb(0,0,128)" stroke="none" d="M 3731,11662 L 3819,11750 3907,11662 3819,11574 3731,11662 Z"/>
 <path fill="none" stroke="rgb(0,0,128)" stroke-linejoin="round" d="M 3731,11662 L 3819,11750 3907,11662 3819,11574 3731,11662 Z"/>
 <path fill="rgb(0,0,128)" stroke="none" d="M 4059,11861 L 4147,11949 4235,11861 4147,11773 4059,11861 Z"/>
 <path fill="none" stroke="rgb(0,0,128)" stroke-linejoin="round" d="M 4059,11861 L 4147,11949 4235,11861 4147,11773 4059,11861 Z"/>
 <path fill="rgb(0,0,128)" stroke="none" d="M 4408,12012 L 4496,12100 4584,12012 4496,11924 4408,12012 Z"/>
 <path fill="none" stroke="rgb(0,0,128)" stroke-linejoin="round" d="M 4408,12012 L 4496,12100 4584,12012 4496,11924 4408,12012 Z"/>
 <path fill="rgb(0,0,128)" stroke="none" d="M 4771,12112 L 4859,12200 4947,12112 4859,12024 4771,12112 Z"/>
 <path fill="none" stroke="rgb(0,0,128)" stroke-linejoin="round" d="M 4771,12112 L 4859,12200 4947,12112 4859,12024 4771,12112 Z"/>
 <path fill="rgb(0,0,128)" stroke="none" d="M 5142,12162 L 5230,12250 5318,12162 5230,12074 5142,12162 Z"/>
 <path fill="none" stroke="rgb(0,0,128)" stroke-linejoin="round" d="M 5142,12162 L 5230,12250 5318,12162 5230,12074 5142,12162 Z"/>
 <path fill="rgb(0,0,128)" stroke="none" d="M 5513,12162 L 5601,12250 5689,12162 5601,12074 5513,12162 Z"/>
 <path fill="none" stroke="rgb(0,0,128)" stroke-linejoin="round" d="M 5513,12162 L 5601,12250 5689,12162 5601,12074 5513,12162 Z"/>
 <path fill="rgb(0,0,128)" stroke="none" d="M 5877,12115 L 5965,12203 6053,12115 5965,12027 5877,12115 Z"/>
 <path fill="none" stroke="rgb(0,0,128)" stroke-linejoin="round" d="M 5877,12115 L 5965,12203 6053,12115 5965,12027 5877,12115 Z"/>
 <path fill="rgb(0,0,128)" stroke="none" d="M 6226,12027 L 6314,12115 6402,12027 6314,11939 6226,12027 Z"/>
 <path fill="none" stroke="rgb(0,0,128)" stroke-linejoin="round" d="M 6226,12027 L 6314,12115 6402,12027 6314,11939 6226,12027 Z"/>
 <path fill="rgb(0,0,128)" stroke="none" d="M 6555,11906 L 6643,11994 6731,11906 6643,11818 6555,11906 Z"/>
 <path fill="none" stroke="rgb(0,0,128)" stroke-linejoin="round" d="M 6555,11906 L 6643,11994 6731,11906 6643,11818 6555,11906 Z"/>
 <path fill="rgb(0,0,128)" stroke="none" d="M 6854,11763 L 6942,11851 7030,11763 6942,11675 6854,11763 Z"/>
 <path fill="none" stroke="rgb(0,0,128)" stroke-linejoin="round" d="M 6854,11763 L 6942,11851 7030,11763 6942,11675 6854,11763 Z"/>
 <path fill="rgb(0,0,128)" stroke="none" d="M 7119,11615 L 7207,11703 7295,11615 7207,11527 7119,11615 Z"/>
 <path fill="none" stroke="rgb(0,0,128)" stroke-linejoin="round" d="M 7119,11615 L 7207,11703 7295,11615 7207,11527 7119,11615 Z"/>
 <path fill="rgb(0,0,128)" stroke="none" d="M 7345,11485 L 7433,11573 7521,11485 7433,11397 7345,11485 Z"/>
 <path fill="none" stroke="rgb(0,0,128)" stroke-linejoin="round" d="M 7345,11485 L 7433,11573 7521,11485 7433,11397 7345,11485 Z"/>
 <path fill="rgb(0,0,128)" stroke="none" d="M 7529,11398 L 7617,11486 7705,11398 7617,11310 7529,11398 Z"/>
 <path fill="none" stroke="rgb(0,0,128)" stroke-linejoin="round" d="M 7529,11398 L 7617,11486 7705,11398 7617,11310 7529,11398 Z"/>
 <path fill="rgb(0,0,128)" stroke="none" d="M 7677,11382 L 7765,11470 7853,11382 7765,11294 7677,11382 Z"/>
 <path fill="none" stroke="rgb(0,0,128)" stroke-linejoin="round" d="M 7677,11382 L 7765,11470 7853,11382 7765,11294 7677,11382 Z"/>
 <path fill="rgb(0,0,128)" stroke="none" d="M 7798,11458 L 7886,11546 7974,11458 7886,11370 7798,11458 Z"/>
 <path fill="none" stroke="rgb(0,0,128)" stroke-linejoin="round" d="M 7798,11458 L 7886,11546 7974,11458 7886,11370 7798,11458 Z"/>
 <path fill="rgb(0,0,128)" stroke="none" d="M 7909,11630 L 7997,11718 8085,11630 7997,11542 7909,11630 Z"/>
 <path fill="none" stroke="rgb(0,0,128)" stroke-linejoin="round" d="M 7909,11630 L 7997,11718 8085,11630 7997,11542 7909,11630 Z"/>
 <path fill="rgb(0,0,128)" stroke="none" d="M 8028,11889 L 8116,11977 8204,11889 8116,11801 8028,11889 Z"/>
 <path fill="none" stroke="rgb(0,0,128)" stroke-linejoin="round" d="M 8028,11889 L 8116,11977 8204,11889 8116,11801 8028,11889 Z"/>
 <path fill="rgb(0,0,128)" stroke="none" d="M 8172,12213 L 8260,12301 8348,12213 8260,12125 8172,12213 Z"/>
 <path fill="none" stroke="rgb(0,0,128)" stroke-linejoin="round" d="M 8172,12213 L 8260,12301 8348,12213 8260,12125 8172,12213 Z"/>
 <path fill="rgb(0,0,128)" stroke="none" d="M 8351,12581 L 8439,12669 8527,12581 8439,12493 8351,12581 Z"/>
 <path fill="none" stroke="rgb(0,0,128)" stroke-linejoin="round" d="M 8351,12581 L 8439,12669 8527,12581 8439,12493 8351,12581 Z"/>
 <path fill="rgb(0,0,128)" stroke="none" d="M 8572,12972 L 8660,13060 8748,12972 8660,12884 8572,12972 Z"/>
 <path fill="none" stroke="rgb(0,0,128)" stroke-linejoin="round" d="M 8572,12972 L 8660,13060 8748,12972 8660,12884 8572,12972 Z"/>
 <path fill="rgb(0,0,128)" stroke="none" d="M 8840,13370 L 8928,13458 9016,13370 8928,13282 8840,13370 Z"/>
 <path fill="none" stroke="rgb(0,0,128)" stroke-linejoin="round" d="M 8840,13370 L 8928,13458 9016,13370 8928,13282 8840,13370 Z"/>
 <path fill="rgb(0,0,128)" stroke="none" d="M 9156,13760 L 9244,13848 9332,13760 9244,13672 9156,13760 Z"/>
 <path fill="none" stroke="rgb(0,0,128)" stroke-linejoin="round" d="M 9156,13760 L 9244,13848 9332,13760 9244,13672 9156,13760 Z"/>
 <path fill="rgb(0,0,128)" stroke="none" d="M 9357,13458 L 9445,13546 9533,13458 9445,13370 9357,13458 Z"/>
 <path fill="none" stroke="rgb(0,0,128)" stroke-linejoin="round" d="M 9357,13458 L 9445,13546 9533,13458 9445,13370 9357,13458 Z"/>
 <path fill="rgb(0,0,128)" stroke="none" d="M 9516,13105 L 9604,13193 9692,13105 9604,13017 9516,13105 Z"/>
 <path fill="none" stroke="rgb(0,0,128)" stroke-linejoin="round" d="M 9516,13105 L 9604,13193 9692,13105 9604,13017 9516,13105 Z"/>
 <path fill="rgb(0,0,128)" stroke="none" d="M 9658,12795 L 9746,12883 9834,12795 9746,12707 9658,12795 Z"/>
 <path fill="none" stroke="rgb(0,0,128)" stroke-linejoin="round" d="M 9658,12795 L 9746,12883 9834,12795 9746,12707 9658,12795 Z"/>
 <path fill="rgb(0,0,128)" stroke="none" d="M 9795,12539 L 9883,12627 9971,12539 9883,12451 9795,12539 Z"/>
 <path fill="none" stroke="rgb(0,0,128)" stroke-linejoin="round" d="M 9795,12539 L 9883,12627 9971,12539 9883,12451 9795,12539 Z"/>
 <path fill="rgb(0,0,128)" stroke="none" d="M 9942,12345 L 10030,12433 10118,12345 10030,12257 9942,12345 Z"/>
 <path fill="none" stroke="rgb(0,0,128)" stroke-linejoin="round" d="M 9942,12345 L 10030,12433 10118,12345 10030,12257 9942,12345 Z"/>
 <path fill="rgb(0,0,128)" stroke="none" d="M 10113,12214 L 10201,12302 10289,12214 10201,12126 10113,12214 Z"/>
 <path fill="none" stroke="rgb(0,0,128)" stroke-linejoin="round" d="M 10113,12214 L 10201,12302 10289,12214 10201,12126 10113,12214 Z"/>
 <path fill="rgb(0,0,128)" stroke="none" d="M 10321,12138 L 10409,12226 10497,12138 10409,12050 10321,12138 Z"/>
 <path fill="none" stroke="rgb(0,0,128)" stroke-linejoin="round" d="M 10321,12138 L 10409,12226 10497,12138 10409,12050 10321,12138 Z"/>
 <path fill="rgb(0,0,128)" stroke="none" d="M 10572,12105 L 10660,12193 10748,12105 10660,12017 10572,12105 Z"/>
 <path fill="none" stroke="rgb(0,0,128)" stroke-linejoin="round" d="M 10572,12105 L 10660,12193 10748,12105 10660,12017 10572,12105 Z"/>
 <path fill="rgb(0,0,128)" stroke="none" d="M 10869,12098 L 10957,12186 11045,12098 10957,12010 10869,12098 Z"/>
 <path fill="none" stroke="rgb(0,0,128)" stroke-linejoin="round" d="M 10869,12098 L 10957,12186 11045,12098 10957,12010 10869,12098 Z"/>
 <path fill="rgb(0,0,128)" stroke="none" d="M 11208,12097 L 11296,12185 11383,12097 11296,12009 11208,12097 Z"/>
 <path fill="none" stroke="rgb(0,0,128)" stroke-linejoin="round" d="M 11208,12097 L 11296,12185 11383,12097 11296,12009 11208,12097 Z"/>
 <path fill="rgb(0,0,128)" stroke="none" d="M 11584,12086 L 11672,12174 11760,12086 11672,11998 11584,12086 Z"/>
 <path fill="none" stroke="rgb(0,0,128)" stroke-linejoin="round" d="M 11584,12086 L 11672,12174 11760,12086 11672,11998 11584,12086 Z"/>
 <path fill="rgb(0,0,128)" stroke="none" d="M 11992,12050 L 12080,12138 12168,12050 12080,11962 11992,12050 Z"/>
 <path fill="none" stroke="rgb(0,0,128)" stroke-linejoin="round" d="M 11992,12050 L 12080,12138 12168,12050 12080,11962 11992,12050 Z"/>
 <path fill="rgb(0,0,128)" stroke="none" d="M 12422,11978 L 12510,12066 12598,11978 12510,11890 12422,11978 Z"/>
 <path fill="none" stroke="rgb(0,0,128)" stroke-linejoin="round" d="M 12422,11978 L 12510,12066 12598,11978 12510,11890 12422,11978 Z"/>
 <path fill="rgb(0,0,128)" stroke="none" d="M 12866,11862 L 12954,11950 13042,11862 12954,11774 12866,11862 Z"/>
 <path fill="none" stroke="rgb(0,0,128)" stroke-linejoin="round" d="M 12866,11862 L 12954,11950 13042,11862 12954,11774 12866,11862 Z"/>
 <path fill="rgb(0,0,128)" stroke="none" d="M 13314,11696 L 13402,11784 13490,11696 13402,11608 13314,11696 Z"/>
 <path fill="none" stroke="rgb(0,0,128)" stroke-linejoin="round" d="M 13314,11696 L 13402,11784 13490,11696 13402,11608 13314,11696 Z"/>
 <path fill="rgb(0,0,128)" stroke="none" d="M 13759,11477 L 13847,11565 13935,11477 13847,11389 13759,11477 Z"/>
 <path fill="none" stroke="rgb(0,0,128)" stroke-linejoin="round" d="M 13759,11477 L 13847,11565 13935,11477 13847,11389 13759,11477 Z"/>
 <path fill="rgb(0,0,128)" stroke="none" d="M 14191,11202 L 14279,11290 14367,11202 14279,11114 14191,11202 Z"/>
 <path fill="none" stroke="rgb(0,0,128)" stroke-linejoin="round" d="M 14191,11202 L 14279,11290 14367,11202 14279,11114 14191,11202 Z"/>
 <path fill="rgb(0,0,128)" stroke="none" d="M 14603,10874 L 14691,10962 14779,10874 14691,10786 14603,10874 Z"/>
 <path fill="none" stroke="rgb(0,0,128)" stroke-linejoin="round" d="M 14603,10874 L 14691,10962 14779,10874 14691,10786 14603,10874 Z"/>
 <path fill="rgb(0,0,128)" stroke="none" d="M 14988,10492 L 15076,10580 15164,10492 15076,10404 14988,10492 Z"/>
 <path fill="none" stroke="rgb(0,0,128)" stroke-linejoin="round" d="M 14988,10492 L 15076,10580 15164,10492 15076,10404 14988,10492 Z"/>
 <path fill="rgb(0,0,128)" stroke="none" d="M 15337,10062 L 15425,10150 15513,10062 15425,9974 15337,10062 Z"/>
 <path fill="none" stroke="rgb(0,0,128)" stroke-linejoin="round" d="M 15337,10062 L 15425,10150 15513,10062 15425,9974 15337,10062 Z"/>
 <path fill="rgb(0,0,128)" stroke="none" d="M 15645,9586 L 15733,9674 15821,9586 15733,9498 15645,9586 Z"/>
 <path fill="none" stroke="rgb(0,0,128)" stroke-linejoin="round" d="M 15645,9586 L 15733,9674 15821,9586 15733,9498 15645,9586 Z"/>
 <path fill="rgb(0,0,128)" stroke="none" d="M 15907,9071 L 15995,9159 16083,9071 15995,8983 15907,9071 Z"/>
 <path fill="none" stroke="rgb(0,0,128)" stroke-linejoin="round" d="M 15907,9071 L 15995,9159 16083,9071 15995,8983 15907,9071 Z"/>
 <text class="TextShape"><tspan class="TextParagraph" font-family="Arial, sans-serif" font-size="309px" font-weight="400"><tspan class="TextPosition" x="455" y="9612"><tspan fill="rgb(0,0,0)" stroke="none">-100</tspan></tspan></tspan></text>
 <text class="TextShape"><tspan class="TextParagraph" font-family="Arial, sans-serif" font-size="309px" font-weight="400"><tspan class="TextPosition" x="4350" y="9612"><tspan fill="rgb(0,0,0)" stroke="none">-50</tspan></tspan></tspan></text>
 <text class="TextShape"><tspan class="TextParagraph" font-family="Arial, sans-serif" font-size="309px" font-weight="400"><tspan class="TextPosition" x="8297" y="9612"><tspan fill="rgb(0,0,0)" stroke="none">0</tspan></tspan></tspan></text>
 <text class="TextShape"><tspan class="TextParagraph" font-family="Arial, sans-serif" font-size="309px" font-weight="400"><tspan class="TextPosition" x="12008" y="9612"><tspan fill="rgb(0,0,0)" stroke="none">50</tspan></tspan></tspan></text>
 <text class="TextShape"><tspan class="TextParagraph" font-family="Arial, sans-serif" font-size="309px" font-weight="400"><tspan class="TextPosition" x="15718" y="9612"><tspan fill="rgb(0,0,0)" stroke="none">100</tspan></tspan></tspan></text>
 <text class="TextShape"><tspan class="TextParagraph" font-family="Arial, sans-serif" font-size="309px" font-weight="400"><tspan class="TextPosition" x="19520" y="9612"><tspan fill="rgb(0,0,0)" stroke="none">150</tspan></tspan></tspan></text>
 <text class="TextShape"><tspan class="TextParagraph" font-family="Arial, sans-serif" font-size="309px" font-weight="400"><tspan class="TextPosition" x="7664" y="16025"><tspan fill="rgb(0,0,0)" stroke="none">-80</tspan></tspan></tspan></text>
 <text class="TextShape"><tspan class="TextParagraph" font-family="Arial, sans-serif" font-size="309px" font-weight="400"><tspan class="TextPosition" x="7664" y="14313"><tspan fill="rgb(0,0,0)" stroke="none">-60</tspan></tspan></tspan></text>
 <text class="TextShape"><tspan class="TextParagraph" font-family="Arial, sans-serif" font-size="309px" font-weight="400"><tspan class="TextPosition" x="7664" y="12601"><tspan fill="rgb(0,0,0)" stroke="none">-40</tspan></tspan></tspan></text>
 <text class="TextShape"><tspan class="TextParagraph" font-family="Arial, sans-serif" font-size="309px" font-weight="400"><tspan class="TextPosition" x="7664" y="10890"><tspan fill="rgb(0,0,0)" stroke="none">-20</tspan></tspan></tspan></text>
 <text class="TextShape"><tspan class="TextParagraph" font-family="Arial, sans-serif" font-size="309px" font-weight="400"><tspan class="TextPosition" x="7955" y="9178"><tspan fill="rgb(0,0,0)" stroke="none">0</tspan></tspan></tspan></text>
 <text class="TextShape"><tspan class="TextParagraph" font-family="Arial, sans-serif" font-size="309px" font-weight="400"><tspan class="TextPosition" x="7770" y="7467"><tspan fill="rgb(0,0,0)" stroke="none">20</tspan></tspan></tspan></text>
 <text class="TextShape"><tspan class="TextParagraph" font-family="Arial, sans-serif" font-size="309px" font-weight="400"><tspan class="TextPosition" x="7770" y="5755"><tspan fill="rgb(0,0,0)" stroke="none">40</tspan></tspan></tspan></text>
 <text class="TextShape"><tspan class="TextParagraph" font-family="Arial, sans-serif" font-size="309px" font-weight="400"><tspan class="TextPosition" x="7770" y="4044"><tspan fill="rgb(0,0,0)" stroke="none">60</tspan></tspan></tspan></text>
 <text class="TextShape"><tspan class="TextParagraph" font-family="Arial, sans-serif" font-size="309px" font-weight="400"><tspan class="TextPosition" x="7770" y="2332"><tspan fill="rgb(0,0,0)" stroke="none">80</tspan></tspan></tspan></text>
 <text class="TextShape"><tspan class="TextParagraph" font-family="Arial, sans-serif" font-size="309px" font-weight="400"><tspan class="TextPosition" x="7584" y="621"><tspan fill="rgb(0,0,0)" stroke="none">100</tspan></tspan></tspan></text>
 <path fill="rgb(255,255,255)" stroke="none" d="M 21491,8501 L 20532,8501 20532,7931 22450,7931 22450,8501 21491,8501 Z"/>
 <path fill="none" stroke="rgb(0,0,0)" stroke-linejoin="round" d="M 21491,8501 L 20532,8501 20532,7931 22450,7931 22450,8501 21491,8501 Z"/>
 <path fill="rgb(0,0,128)" stroke="none" d="M 20633,8216 L 20725,8308 20818,8216 20725,8124 20633,8216 Z"/>
 <path fill="none" stroke="rgb(0,0,128)" stroke-linejoin="round" d="M 20633,8216 L 20725,8308 20818,8216 20725,8124 20633,8216 Z"/>
 <text class="TextShape"><tspan class="TextParagraph" font-family="Arial, sans-serif" font-size="309px" font-weight="400"><tspan class="TextPosition" x="20918" y="8321"><tspan fill="rgb(0,0,0)" stroke="none">Column B</tspan></tspan></tspan></text>
</svg>